<?xml version="1.0" standalone="no"?>
<!DOCTYPE svg PUBLIC "-//W3C//DTD SVG 20010904//EN"
 "http://www.w3.org/TR/2001/REC-SVG-20010904/DTD/svg10.dtd">
<svg version="1.0" xmlns="http://www.w3.org/2000/svg"
 width="225.000000pt" height="225.000000pt" viewBox="0 0 225.000000 225.000000"
 preserveAspectRatio="xMidYMid meet">

<g transform="translate(0.000000,225.000000) scale(0.100000,-0.100000)"
fill="#000000" stroke="none">
<path d="M650 1971 c0 -50 -3 -92 -8 -95 -4 -2 -106 -25 -227 -51 -120 -25
-220 -47 -221 -48 -1 -1 43 -211 97 -467 54 -255 99 -468 99 -472 0 -4 -21 -8
-46 -8 -92 0 -151 -67 -142 -162 4 -40 12 -57 40 -85 20 -20 51 -38 74 -43 21
-5 139 -10 262 -10 l222 0 0 30 0 30 63 0 63 0 13 -50 c25 -96 120 -214 222
-273 139 -80 337 -78 479 5 50 30 137 116 165 163 57 98 80 243 56 350 -4 17
-1 56 6 87 7 31 15 72 18 90 3 18 12 61 20 94 8 34 17 75 19 90 3 16 15 71 26
122 11 50 29 136 40 190 12 53 32 146 46 206 13 60 23 110 22 112 -2 1 -102
23 -222 48 -121 26 -223 49 -228 52 -4 3 -8 45 -8 95 l0 89 -475 0 -475 0 0
-89z m890 -400 l0 -429 -27 7 c-28 7 -28 8 -28 99 l0 92 -357 0 -358 0 0 -225
0 -225 94 0 95 0 -18 -50 c-10 -28 -21 -53 -25 -58 -4 -4 -32 -8 -62 -8 -53
-1 -54 -1 -54 27 0 28 -2 29 -45 29 l-45 0 0 585 0 585 415 0 415 0 0 -429z
m-894 198 l1 -34 -54 -1 c-48 0 -57 -4 -93 -39 -62 -61 -66 -144 -10 -209 l29
-33 -24 -23 c-56 -52 -83 -172 -55 -245 9 -23 14 -25 42 -20 18 3 38 7 43 9 6
1 30 6 55 10 25 4 49 8 54 9 13 3 15 -43 2 -51 -13 -8 -19 -9 -66 -17 -46 -8
-110 -25 -110 -29 0 -2 11 -58 25 -126 14 -68 25 -126 25 -130 0 -7 -48 -5
-55 2 -2 2 -17 68 -33 148 -31 145 -109 517 -118 555 -2 11 -12 57 -22 102
l-19 82 46 10 c25 6 62 13 81 16 19 3 60 12 90 20 30 7 70 16 88 19 19 2 36 7
39 9 2 3 12 4 21 3 12 -2 17 -13 18 -37z m1149 2 c203 -43 188 -36 181 -81 -3
-21 -12 -68 -20 -103 -15 -63 -20 -87 -32 -144 -3 -16 -12 -57 -20 -93 -8 -36
-17 -81 -20 -100 -3 -19 -12 -60 -19 -90 -8 -30 -16 -68 -19 -85 -3 -16 -8
-41 -11 -55 -3 -14 -8 -40 -11 -57 -3 -18 -10 -33 -15 -33 -5 0 -9 4 -9 8 0
18 -106 125 -149 150 l-47 27 0 348 c0 347 0 349 20 344 12 -2 89 -19 171 -36z
m-1155 -108 c10 -10 7 -148 -4 -155 -25 -17 -68 -7 -98 22 -24 25 -29 36 -25
64 6 45 13 55 51 72 27 11 61 10 76 -3z m5 -310 l-1 -87 -50 -13 c-103 -26
-104 -26 -104 17 0 21 5 42 10 45 6 4 8 10 5 15 -14 22 89 108 130 110 7 0 10
-33 10 -87z m775 -131 l0 -58 -42 -1 c-24 -1 -54 -4 -68 -7 -14 -3 -35 -7 -48
-10 -60 -13 -141 -63 -204 -126 l-66 -66 -82 0 -82 1 -1 158 c-1 87 0 161 2
163 2 2 136 4 298 4 l293 0 0 -58z m102 -141 c186 -64 301 -238 285 -431 -14
-173 -122 -307 -290 -361 -292 -94 -575 147 -535 456 20 148 145 294 293 341
62 20 183 17 247 -5z m-878 -120 c0 -61 -3 -114 -7 -118 -11 -11 -47 -11 -54
0 -3 6 -16 53 -29 106 -24 98 -22 109 16 112 26 1 52 7 57 13 14 14 18 -10 17
-113z m82 -276 c0 -61 -4 -82 -13 -82 -10 0 -10 4 -3 11 23 23 8 28 -17 5
l-28 -24 28 31 c42 47 32 53 -15 9 -39 -37 -40 -37 -10 -5 48 54 39 61 -13 10
-25 -24 -45 -39 -45 -33 0 7 16 25 35 40 32 26 50 53 24 37 -7 -4 -10 -1 -7 6
2 8 10 16 18 18 7 3 10 0 6 -7 -4 -6 -5 -11 -2 -11 2 0 11 -3 20 -6 9 -3 16
-1 16 6 0 6 -4 9 -9 6 -5 -3 -11 1 -14 9 -4 9 -1 12 9 8 7 -3 14 0 14 7 0 6
-4 8 -10 5 -5 -3 -10 -1 -10 4 0 6 5 11 10 11 6 0 10 6 10 12 0 7 -34 -21 -75
-62 -41 -41 -72 -76 -70 -78 3 -3 14 7 26 21 11 15 25 27 32 27 6 0 -2 -13
-17 -29 -28 -29 -34 -30 -141 -31 -8 0 -34 0 -57 -1 -86 -1 -123 13 -143 51
-18 35 -12 69 18 95 22 20 36 21 229 21 l205 1 -1 -82z m184 0 c0 -24 -3 -25
-55 -25 -52 0 -55 1 -55 25 0 24 3 25 55 25 52 0 55 -1 55 -25z m-250 -9 c0
-3 -4 -8 -10 -11 -5 -3 -10 -1 -10 4 0 6 5 11 10 11 6 0 10 -2 10 -4z"/>
<path d="M944 1926 c-42 -19 -82 -73 -87 -120 -3 -26 3 -52 19 -84 15 -30 20
-48 13 -51 -24 -8 -80 -65 -93 -95 -20 -42 -31 -94 -31 -136 l0 -35 241 -3
241 -2 -3 61 c-2 36 -11 78 -24 104 -20 42 -73 97 -102 107 -10 4 -10 9 3 24
37 43 42 130 10 174 -46 64 -119 85 -187 56z m123 -78 c44 -44 27 -119 -31
-138 -64 -21 -116 16 -116 81 0 76 92 112 147 57z m13 -229 c59 -29 100 -86
100 -140 0 -18 -9 -19 -176 -19 l-176 0 5 34 c7 51 60 112 119 135 34 14 88
10 128 -10z"/>
<path d="M1309 1938 c-1 -2 -3 -15 -5 -30 l-3 -28 88 0 c76 0 89 2 93 18 10
37 -1 42 -88 42 -46 0 -85 -1 -85 -2z"/>
<path d="M1309 1818 c-1 -2 -3 -15 -5 -30 l-3 -28 90 0 89 0 0 30 0 30 -85 0
c-47 0 -86 -1 -86 -2z"/>
<path d="M1309 1698 c-1 -2 -3 -15 -5 -30 l-3 -28 90 0 c49 0 89 3 90 8 6 56
13 52 -83 52 -48 0 -89 -1 -89 -2z"/>
<path d="M1309 1578 c-1 -2 -3 -15 -5 -30 l-3 -28 90 0 c49 0 89 3 90 8 6 56
13 52 -83 52 -48 0 -89 -1 -89 -2z"/>
<path d="M1309 1458 c-1 -2 -3 -15 -5 -30 l-3 -28 90 0 c49 0 89 3 90 8 6 56
13 52 -83 52 -48 0 -89 -1 -89 -2z"/>
<path d="M1734 1695 c-4 -14 -4 -28 -2 -30 2 -3 36 -11 75 -19 39 -9 76 -17
83 -18 17 -4 33 52 17 57 -12 5 -154 35 -162 35 -3 0 -7 -11 -11 -25z"/>
<path d="M1708 1582 c-9 -35 4 -43 87 -58 78 -13 88 -11 92 19 2 15 0 27 -4
28 -4 0 -15 2 -23 4 -136 30 -146 30 -152 7z"/>
<path d="M1685 1463 c-3 -13 -3 -27 -1 -32 4 -6 131 -35 160 -36 5 0 13 12 17
28 4 15 4 27 1 27 -4 0 -44 9 -89 19 l-81 18 -7 -24z"/>
<path d="M1662 1353 c-6 -10 -11 -22 -12 -28 -1 -9 171 -57 178 -50 2 2 6 16
8 32 5 30 4 30 -68 43 -40 7 -78 15 -85 17 -6 3 -16 -4 -21 -14z"/>
<path d="M1636 1234 c-13 -34 -5 -41 69 -57 99 -22 102 -22 107 12 4 28 3 29
-69 45 -91 20 -99 20 -107 0z"/>
<path d="M1355 1044 c-115 -27 -203 -78 -247 -143 -95 -141 -95 -305 0 -429
44 -58 65 -76 123 -106 175 -92 382 -24 485 159 26 46 29 58 29 155 0 122 -15
164 -85 243 -47 52 -139 105 -198 113 -66 8 -97 11 -107 8z m132 -79 c74 -22
159 -105 186 -182 18 -50 20 -131 4 -189 -23 -86 -130 -182 -224 -200 -54 -11
-61 -11 -128 4 -85 18 -154 73 -194 154 -28 55 -32 72 -30 135 2 58 8 85 31
130 36 73 58 95 130 131 69 35 145 40 225 17z"/>
<path d="M1390 894 c0 -30 3 -34 26 -34 37 0 95 -35 122 -74 46 -68 41 -155
-13 -215 -32 -35 -33 -39 -19 -59 8 -12 21 -22 28 -22 14 0 89 74 82 81 -3 3
1 26 9 51 39 131 -49 271 -188 297 l-47 8 0 -33z"/>
<path d="M1392 478 c2 -26 8 -33 25 -34 34 -2 46 11 39 40 -5 21 -12 26 -37
26 -28 0 -30 -2 -27 -32z"/>
<path d="M294 728 l-29 -33 33 29 c30 28 37 36 29 36 -2 0 -16 -15 -33 -32z"/>
<path d="M310 715 c-24 -25 -42 -45 -39 -45 3 0 25 20 49 45 24 25 42 45 39
45 -3 0 -25 -20 -49 -45z"/>
<path d="M330 703 l-55 -58 58 55 c53 50 62 60 54 60 -1 0 -27 -26 -57 -57z"/>
<path d="M350 693 l-65 -68 68 65 c37 35 67 66 67 67 0 8 -10 -2 -70 -64z"/>
<path d="M375 688 l-70 -73 73 70 c67 64 77 75 69 75 -1 0 -34 -33 -72 -72z"/>
<path d="M400 685 c-41 -41 -72 -75 -69 -75 2 0 38 34 79 75 41 41 72 75 69
75 -2 0 -38 -34 -79 -75z"/>
<path d="M430 685 c-41 -41 -72 -75 -69 -75 2 0 38 34 79 75 41 41 72 75 69
75 -2 0 -38 -34 -79 -75z"/>
<path d="M455 678 l-80 -83 83 80 c76 74 87 85 79 85 -1 0 -38 -37 -82 -82z"/>
<path d="M485 678 l-80 -83 83 80 c76 74 87 85 79 85 -1 0 -38 -37 -82 -82z"/>
<path d="M515 678 l-80 -83 83 80 c76 74 87 85 79 85 -1 0 -38 -37 -82 -82z"/>
<path d="M550 685 c-41 -41 -72 -75 -69 -75 2 0 38 34 79 75 41 41 72 75 69
75 -2 0 -38 -34 -79 -75z"/>
<path d="M575 678 l-80 -83 83 80 c76 74 87 85 79 85 -1 0 -38 -37 -82 -82z"/>
<path d="M610 685 c-41 -41 -72 -75 -69 -75 2 0 38 34 79 75 41 41 72 75 69
75 -2 0 -38 -34 -79 -75z"/>
</g>
</svg>
